<?xml version="1.0" encoding="iso-8859-1"?>
<!-- Generator: Adobe Illustrator 18.0.0, SVG Export Plug-In . SVG Version: 6.00 Build 0)  -->
<!DOCTYPE svg PUBLIC "-//W3C//DTD SVG 1.1//EN" "http://www.w3.org/Graphics/SVG/1.1/DTD/svg11.dtd">
<svg version="1.1" id="Capa_1" xmlns="http://www.w3.org/2000/svg" xmlns:xlink="http://www.w3.org/1999/xlink" x="0px" y="0px"
	 viewBox="0 0 460 460" style="enable-background:new 0 0 460 460;" xml:space="preserve">
<g id="XMLID_536_">
	<path id="XMLID_866_" d="M256.488,76.939c-49.492-49.491-130.02-49.491-179.51,0c-49.491,49.491-49.491,130.019,0,179.51
		c23.974,23.975,55.85,37.178,89.755,37.178c33.905,0,65.78-13.203,89.755-37.178C305.979,206.958,305.979,126.43,256.488,76.939z
		 M245.835,245.796c-21.128,21.129-49.221,32.765-79.102,32.765c-29.881,0-57.973-11.637-79.102-32.765
		c-43.617-43.617-43.617-114.587,0-158.204c21.811-21.811,50.452-32.713,79.102-32.713c28.643,0,57.296,10.907,79.102,32.713
		C289.452,131.209,289.452,202.179,245.835,245.796z"/>
	<path id="XMLID_1679_" d="M449.468,398.571L307.289,256.393c41.167-64.486,33.622-151.317-22.658-207.597
		c-65.011-65.01-170.788-65.009-235.796,0C17.343,80.288,0,122.158,0,166.694C0,211.23,17.343,253.1,48.835,284.591
		c31.491,31.492,73.361,48.835,117.898,48.835c32.293,0,63.181-9.126,89.73-26.145L398.61,449.428
		c6.792,6.792,15.823,10.533,25.429,10.533c9.605,0,18.636-3.741,25.427-10.533C456.259,442.636,460,433.605,460,424
		C460,414.394,456.26,405.364,449.468,398.571z M59.488,273.939c-28.646-28.646-44.423-66.733-44.423-107.245
		c0-40.512,15.777-78.598,44.423-107.245c29.567-29.567,68.406-44.351,107.245-44.351c38.838,0,77.677,14.783,107.244,44.351
		c59.135,59.135,59.135,155.354,0,214.49c-28.646,28.646-66.733,44.422-107.244,44.422
		C126.221,318.361,88.134,302.585,59.488,273.939z M438.813,438.775c-3.946,3.947-9.193,6.12-14.774,6.12
		c-5.582,0-10.828-2.174-14.775-6.12L268.943,298.454c5.468-4.259,10.709-8.883,15.689-13.862
		c5.003-5.003,9.618-10.25,13.851-15.699l140.332,140.332c3.947,3.947,6.12,9.194,6.12,14.776S442.761,434.828,438.813,438.775z"/>
	<path id="XMLID_1697_" d="M257.203,180.554l-16.223-16.223c-1.413-1.413-3.329-2.206-5.327-2.206h-13.513
		c-0.343-5.429-1.197-10.685-2.504-15.7l4.446-6.669l13.399-3.35c4.036-1.009,6.489-5.098,5.481-9.134
		c-1.009-4.037-5.101-6.489-9.135-5.481l-16.223,4.056c-1.818,0.454-3.402,1.57-4.441,3.129l-0.214,0.321
		c-2.468-4.584-5.37-8.791-8.628-12.546c0.002-0.143,0.012-0.284,0.012-0.428c0-9.576-5.336-20.012-13.893-27.398l6.258-9.387
		c2.308-3.461,1.373-8.138-2.089-10.446c-3.461-2.308-8.138-1.373-10.446,2.089l-6.734,10.101
		c-3.939-1.409-8.168-2.215-12.601-2.215c-4.433,0-8.662,0.806-12.601,2.215l-6.734-10.101c-2.307-3.462-6.984-4.396-10.446-2.089
		c-3.462,2.307-4.397,6.984-2.089,10.446l6.258,9.387c-8.556,7.386-13.893,17.822-13.893,27.398c0,0.144,0.01,0.285,0.012,0.428
		c-3.258,3.754-6.159,7.961-8.628,12.546l-0.214-0.321c-1.039-1.56-2.623-2.675-4.441-3.129l-16.223-4.056
		c-4.035-1.008-8.126,1.445-9.134,5.481c-1.009,4.036,1.445,8.126,5.481,9.134l13.398,3.35l4.446,6.668
		c-1.307,5.014-2.161,10.27-2.504,15.7H94.004c-1.998,0-3.914,0.793-5.326,2.206l-16.223,16.223c-2.942,2.942-2.942,7.711,0,10.653
		c1.471,1.471,3.399,2.206,5.326,2.206s3.856-0.736,5.326-2.206l14.016-14.017h10.777c0.829,7.267,2.565,14.185,5.085,20.564
		l-13.668,5.467c-1.713,0.685-3.115,1.975-3.94,3.625l-8.112,16.223c-1.861,3.721-0.353,8.245,3.369,10.106
		c1.081,0.541,2.23,0.797,3.363,0.797c2.763,0,5.423-1.526,6.743-4.166l6.831-13.661l12.381-4.953
		c10.544,16.023,26.737,26.312,44.875,26.312c18.139,0,34.331-10.289,44.875-26.312l12.381,4.953l6.831,13.661
		c1.32,2.64,3.98,4.166,6.743,4.166c1.132,0,2.281-0.256,3.363-0.796c3.72-1.861,5.229-6.385,3.368-10.106l-8.111-16.223
		c-0.825-1.65-2.226-2.94-3.94-3.625l-13.668-5.467c2.521-6.38,4.257-13.298,5.085-20.564h10.777l14.016,14.017
		c1.471,1.471,3.399,2.206,5.327,2.206c1.927,0,3.856-0.736,5.326-2.206C260.145,188.265,260.145,183.496,257.203,180.554z
		 M189.268,116.323c0,12.325-20.358,12.949-24.439,12.949c-4.081,0-24.439-0.624-24.439-12.949c0-9.989,11.278-22.191,24.439-22.191
		C177.991,94.133,189.268,106.334,189.268,116.323z M122.406,167.528c0-13.056,3.542-25.059,9.443-34.493
		c5.516,5.879,14.299,9.727,25.448,10.909v77.611C137.487,216.939,122.406,194.478,122.406,167.528z M172.362,221.555v-77.611
		c11.148-1.182,19.931-5.031,25.447-10.909c5.901,9.434,9.443,21.437,9.443,34.493C207.252,194.478,192.171,216.939,172.362,221.555
		z"/>
</g>
<g>
</g>
<g>
</g>
<g>
</g>
<g>
</g>
<g>
</g>
<g>
</g>
<g>
</g>
<g>
</g>
<g>
</g>
<g>
</g>
<g>
</g>
<g>
</g>
<g>
</g>
<g>
</g>
<g>
</g>
</svg>
